<?xml version="1.0" encoding="UTF-8"?>
<svg xmlns="http://www.w3.org/2000/svg" xmlns:xlink="http://www.w3.org/1999/xlink" width="300px" height="296px" viewBox="0 0 78 77" version="1.1">
  <title>Artboard</title>
  <g id="Artboard" stroke="none" stroke-width="1" fill="none" fill-rule="evenodd">
    <g id="Group-2" fill="#AA6389" fill-rule="nonzero">
      <path d="M56.2058824,76.1958764 C54.5863756,76.5548133 48.8638366,75.6075013 44.43944,73.1245024 C40.9312135,71.155276 33.9288553,66.7593545 28.0146253,59.2357553 C25.4578061,55.9842091 23.1039539,52.1499183 21.323765,47.6737638 C20.1947616,44.8360508 18.7641268,40.5161395 17.0093088,31.7623015 C15.3672502,23.5658715 14.7527115,10.1078486 21.6719096,2.41252272 L21.687414,2.29850746 C20.485117,3.03890282 19.3547041,3.93413372 18.3173178,4.9659014 C15.0754853,8.19070324 12.7455944,12.7499059 11.9689641,18.0706178 C8.34797817,42.8626016 24.9743503,68.4287631 45.0906255,75.5652735 C48.5593862,76.7969197 51.0330453,77.2403124 54.054997,76.8771527 C55.0500986,76.7575071 55.8619662,76.5393297 56.2058824,76.1958764" id="Fill-7"></path>
      <path d="M74.6049663,17.9489188 C70.1652575,10.9853743 59.6128854,7.92441341 48.9716331,15.0294071 C48.3179337,15.4664852 46.9804302,16.3816616 46.9804302,16.3816616 C46.6234759,11.3488987 44.3871356,6.61035027 40.5910914,3.79692552 C34.4569248,-0.749252024 27.8912593,-0.940208455 22.519742,1.77985981 C21.8388051,2.7105956 20.9686394,4.12508768 20.1973887,6.05304039 L19.0949877,9.57795465 C18.3409396,12.8072401 18.0298589,16.9333135 18.7953754,22.0268994 C22.0409359,12.999611 31.283042,9.6232184 37.2638185,14.5357494 C40.4878757,17.1850931 41.7379326,21.214981 42.3314229,25.4938195 C48.9874022,20.6307958 58.5907632,16.7352846 63.8920364,25.1755588 C67.1648344,30.3893766 64.9657665,37.4505211 61.2672038,42.0504493 C54.7087059,50.2078252 43.2159241,54.5517303 34.4712604,52.3974589 C32.1087676,51.8146882 30.4630505,50.8203002 28.7556908,49.1752459 C38.5067076,65.9383916 91.8118842,44.9402567 74.6049663,17.9489188 M21.5477942,2.31453782 C21.474683,2.35697258 21.3987048,2.39374938 21.3270272,2.43759863 L21.2811536,2.58470581 C21.3657331,2.49134933 21.4603475,2.40506531 21.5477942,2.31453782" id="Fill-9"></path>
      <path d="M0,39.1455384 C0,39.1455384 8.07420475,45.5928547 18.6840509,43.0975721 C29.2924638,40.6036929 32.1176471,33.3283582 32.1176471,33.3283582 C23.637797,40.8436779 6.64512928,41.3011932 0,39.1455384" id="Fill-11"></path>
    </g>
  </g>
</svg>
