<?xml version="1.0" encoding="UTF-8"?>
<svg xmlns="http://www.w3.org/2000/svg" xmlns:xlink="http://www.w3.org/1999/xlink" width="300px" height="88px" viewBox="0 0 282 83" version="1.1">
  <title>Artboard</title>
  <defs>
    <polygon id="path-1" points="0.0510469754 0.0596436364 197.975972 0.0596436364 197.975972 58.4560558 0.0510469754 58.4560558"></polygon>
  </defs>
  <g id="Artboard" stroke="none" stroke-width="1" fill="none" fill-rule="evenodd">
    <g id="Bethany-logo">
      <g id="Group-3" transform="translate(84.000000, 16.068320)">
        <mask id="mask-2" fill="white">
          <use xlink:href="#path-1"></use>
        </mask>
        <g id="Clip-2"></g>
        <path d="M8.53588803,39.1255103 C9.47864814,40.6788194 10.6517979,41.8502376 12.0567508,42.6369042 C13.4602902,43.4250012 15.0942193,43.8183345 16.9599514,43.8183345 C20.7521934,43.8183345 23.8363052,42.4924436 26.2137003,39.8406618 C28.5910954,37.18888 29.7797929,33.8734376 29.7797929,29.8943345 C29.7797929,25.9381164 28.6221909,22.684177 26.3055735,20.1368073 C23.9903695,17.5880073 21.0179189,16.3136073 17.3896352,16.3136073 C15.8730211,16.3136073 14.3776085,16.6354255 12.901984,17.2776315 C11.4263594,17.9198376 9.97052299,18.8924436 8.53588803,20.1983103 L8.53588803,0.0596436364 L7.88994894,0.0596436364 C7.27510538,0.349995152 6.11750338,0.638916364 4.4157295,0.929267879 C2.71395561,1.21961939 1.25953258,1.36408 0.0510469754,1.36408 L0.0510469754,2.79438303 C1.4037028,2.79438303 2.35070321,2.9703103 2.89487509,3.32216485 C3.43763354,3.6754497 3.77544414,4.21324364 3.90830688,4.93840727 C4.04258306,5.66357091 4.10901443,7.26980121 4.10901443,9.75566788 L4.10901443,43.8183345 L5.30760601,43.8183345 C6.12739741,42.036177 7.20302028,40.4728558 8.53588803,39.1255103 L8.53588803,39.1255103 Z M12.5175301,18.9711103 C13.8588784,18.2974376 15.227082,17.9613164 16.6221408,17.9613164 C19.0603136,17.9613164 21.0122652,18.9510861 22.4779957,20.9291952 C23.9437262,22.9073042 24.6772981,25.7922255 24.6772981,29.5839588 C24.6772981,33.7075224 23.8928426,36.8670618 22.3253448,39.0640073 C20.7564337,41.2595224 18.6504179,42.3579952 16.0072973,42.3579952 C14.2857353,42.3579952 12.7790153,41.8402255 11.4871371,40.8032558 C10.1966723,39.7677164 9.38112123,38.684977 9.04331064,37.5564679 C8.70550004,36.4265285 8.53588803,34.5771467 8.53588803,32.0083224 L8.53588803,22.0319588 C9.84755428,20.6645891 11.1747683,19.644783 12.5175301,18.9711103 L12.5175301,18.9711103 Z M53.2936719,19.3587224 C51.4901308,17.3291224 48.93747,16.3136073 45.6385163,16.3136073 C42.1332013,16.3136073 39.2130478,17.6452194 36.8766423,20.3070133 C34.5388234,22.9702376 33.3713273,26.3114255 33.3713273,30.330577 C33.3713273,33.1697285 33.9748634,35.5826497 35.1847625,37.5722012 C36.3946615,39.5603224 37.9466114,41.0993285 39.8434391,42.1863588 C41.7388534,43.2748194 43.7515826,43.8183345 45.8844537,43.8183345 C48.1798697,43.8183345 50.3014333,43.2218982 52.2477312,42.0318861 C54.1954425,40.8404436 55.4972147,39.1870133 56.1530478,37.0744558 L54.6774233,37.0744558 C53.1198196,40.4514012 50.4752856,42.1405891 46.7452347,42.1405891 C43.9975201,42.1405891 41.9339072,41.0163709 40.5501559,38.7679345 C39.1664045,36.5194982 38.4752355,33.1582861 38.4752355,28.6828679 C38.4752355,28.0821406 38.5162251,27.1710376 38.5982043,25.9481285 L56.1530478,25.9481285 C56.0498672,23.5866982 55.097213,21.3897527 53.2936719,19.3587224 L53.2936719,19.3587224 Z M38.721173,24.7051952 C39.4377837,20.022383 41.6611146,17.680977 45.3925789,17.680977 C46.9289811,17.680977 48.2250995,18.1830133 49.2809343,19.1885164 C50.3367691,20.1940194 50.8653932,21.6071588 50.8653932,23.4307952 C50.8653932,23.8041042 50.8342977,24.2289042 50.7721066,24.7051952 L38.721173,24.7051952 Z M73.820966,17.3391345 L66.2265881,17.3391345 L66.2265881,9.35232242 L65.2428384,9.35232242 C64.8739322,11.8596436 64.0230453,13.8062861 62.691591,15.1951103 C61.3587232,16.5825042 59.8520032,17.2976558 58.1714308,17.3391345 L58.1714308,18.7694376 L61.83081,18.7694376 L61.83081,33.1897527 C61.83081,36.1519103 61.9693265,38.2244194 62.244946,39.4058497 C62.521979,40.5858497 63.2188017,41.6170982 64.3354141,42.4981648 C65.45344,43.3778012 66.7495584,43.8183345 68.225183,43.8183345 C69.4958597,43.8183345 70.7509886,43.4707709 71.9919831,42.7770739 C73.2315643,42.083377 74.1686707,41.0521285 74.8047157,39.6847588 L73.820966,39.0940436 C72.7340357,40.7932436 71.453465,41.6428436 69.9778405,41.6428436 C69.2188267,41.6428436 68.5064562,41.3939709 67.8407291,40.8976558 C67.1750019,40.3999103 66.738251,39.7419709 66.5347166,38.9238376 C66.3297687,38.1057042 66.2265881,36.5152073 66.2265881,34.1523467 L66.2265881,18.7694376 L73.820966,18.7694376 L73.820966,17.3391345 Z M85.6499907,0.0596436364 L85.0040516,0.0596436364 C82.8937954,0.929267879 80.2492614,1.36408 77.071863,1.36408 L77.071863,2.79438303 C78.8966056,2.79438303 80.0499673,3.13622545 80.5305347,3.8199103 C81.0125155,4.50359515 81.2542126,6.1298497 81.2542126,8.69867394 L81.2542126,34.059377 C81.2542126,36.8985285 81.2174633,38.6120315 81.1467917,39.2027467 C81.0747065,39.7934618 80.8174617,40.3012194 80.3778839,40.7260194 C79.9368926,41.1508194 78.9785847,41.3625042 77.5029602,41.3625042 L76.8570211,41.3625042 L76.8570211,42.7928073 L89.6471805,42.7928073 L89.6471805,41.3625042 C88.2323336,41.3625042 87.2584779,41.1922982 86.7256135,40.8504558 C86.1927491,40.5086133 85.8803803,40.006577 85.7885071,39.3429164 C85.696634,38.6806861 85.6499907,36.9185527 85.6499907,34.059377 L85.6499907,23.8656073 C86.6139523,21.9804679 87.7305647,20.5658982 89.0012414,19.6233285 C90.2719181,18.6807588 91.706553,18.2087588 93.3051463,18.2087588 C94.6790036,18.2087588 95.8210578,18.5405891 96.7341358,19.2042497 C97.6458004,19.86648 98.2253081,20.7060679 98.4712456,21.721583 C98.717183,22.7370982 98.8401517,24.3004194 98.8401517,26.4144073 L98.8401517,34.059377 C98.8401517,36.8770739 98.8034024,38.5819952 98.7313173,39.1727103 C98.6592322,39.7619952 98.4034008,40.2754739 97.9638229,40.7102861 C97.5228317,41.1450982 96.5532164,41.3625042 95.0578038,41.3625042 L94.4740557,41.3625042 L94.4740557,42.7928073 L107.479057,42.7928073 L107.479057,41.3625042 C105.982231,41.3625042 104.957492,41.2137527 104.404839,40.9119588 C103.850773,40.6130255 103.517203,40.1410255 103.405542,39.4988194 C103.292467,38.8566133 103.23593,37.0429891 103.23593,34.059377 L103.23593,27.0351588 C103.23593,24.175983 103.030982,22.1091952 102.621086,20.8347952 C102.21119,19.5618255 101.324968,18.4890982 99.9624179,17.6194739 C98.5984546,16.7484194 96.8825463,16.3136073 94.8118663,16.3136073 C92.9871237,16.3136073 91.3122051,16.7484194 89.785697,17.6194739 C88.2577754,18.4890982 86.8796778,19.7949648 85.6499907,21.5342133 L85.6499907,0.0596436364 Z M133.185171,41.1765648 C132.36538,41.1765648 131.832515,40.8347224 131.586578,40.1510376 C131.340641,39.4673527 131.217672,37.9240558 131.217672,35.5197164 L131.217672,25.232977 C131.217672,23.0574861 130.987282,21.4412436 130.526503,20.3842497 C130.065724,19.3286861 129.11731,18.3861164 127.682675,17.5565406 C126.24804,16.7283952 124.228243,16.3136073 121.626112,16.3136073 C118.120797,16.3136073 115.538455,16.9930012 113.87767,18.3489285 C112.218299,19.7062861 111.387201,20.9749648 111.387201,22.1563952 C111.387201,23.3578497 112.013352,23.958577 113.262827,23.958577 C114.656472,23.958577 115.517253,22.901583 115.84517,20.7890255 C116.194288,18.7179467 117.905956,17.680977 120.980173,17.680977 C122.517989,17.680977 123.75757,17.9913527 124.70033,18.6135345 C125.64309,19.2342861 126.226838,19.9394255 126.452988,20.7260921 C126.677724,21.5141891 126.790798,22.7885891 126.790798,24.5492921 L126.790798,25.7922255 L122.024701,27.7503103 C118.39783,29.2635709 115.554002,30.81688 113.493216,32.4130982 C111.433844,34.0078861 110.403451,35.8730012 110.403451,38.0070133 C110.403451,39.64328 111.018294,40.9591588 112.247981,41.9532194 C113.479082,42.9487103 114.943399,43.4450255 116.645173,43.4450255 C117.976627,43.4450255 119.489001,43.0731467 121.179468,42.3265285 C122.871347,41.5813406 124.74132,40.4728558 126.790798,39.0010739 C127.036736,40.4728558 127.563946,41.5813406 128.373844,42.3265285 C129.183741,43.0731467 130.284806,43.4450255 131.679865,43.4450255 C134.937829,43.4450255 136.659391,41.6743103 136.844551,38.1314497 L135.706737,38.1314497 C135.37882,40.16248 134.537827,41.1765648 133.185171,41.1765648 L133.185171,41.1765648 Z M126.790798,37.3233285 C125.211993,38.6077406 123.787252,39.5717648 122.517989,40.2139709 C121.245899,40.856177 120.129286,41.1765648 119.166738,41.1765648 C118.079808,41.1765648 117.197825,40.7775103 116.522204,39.9808315 C115.84517,39.1827224 115.507359,38.1314497 115.507359,36.825583 C115.507359,33.5315952 118.151893,30.7968558 123.439548,28.6213648 L126.790798,27.2539952 L126.790798,37.3233285 Z M139.23608,17.74248 L139.23608,19.172783 C140.711704,19.172783 141.720896,19.332977 142.263654,19.6547952 C142.807826,19.9766133 143.135743,20.4529042 143.248818,21.0836679 C143.360479,21.7158618 143.417016,23.5137527 143.417016,26.4759103 L143.417016,34.059377 C143.417016,37.1674255 143.350585,39.0168073 143.217722,39.6075224 C143.083446,40.1982376 142.741395,40.6387709 142.187329,40.9276921 C141.634677,41.2180436 140.650927,41.3625042 139.23608,41.3625042 L139.23608,42.7928073 L151.964048,42.7928073 L151.964048,41.3625042 C150.488424,41.3625042 149.479232,41.2023103 148.936474,40.8819224 C148.392302,40.5601042 148.064385,40.0780921 147.952724,39.4358861 C147.839649,38.79368 147.783112,37.0015103 147.783112,34.059377 L147.783112,23.6796679 C148.991598,21.8760558 150.277822,20.5244194 151.641785,19.6233285 C153.004335,18.7222376 154.433316,18.2716921 155.930143,18.2716921 C157.241809,18.2716921 158.323085,18.6035224 159.173972,19.2657527 C160.023446,19.9294133 160.546416,20.6903345 160.74147,21.5499467 C160.936524,22.4109891 161.034051,23.845583 161.034051,25.8551588 L161.034051,34.059377 C161.034051,36.8985285 161.002955,38.6077406 160.942178,39.1870133 C160.879986,39.7677164 160.624155,40.2754739 160.17327,40.7102861 C159.722384,41.1450982 158.758423,41.3625042 157.282798,41.3625042 L156.69905,41.3625042 L156.69905,42.7928073 L169.581083,42.7928073 L169.581083,41.3625042 C168.125246,41.3625042 167.125949,41.2023103 166.58319,40.8819224 C166.040432,40.5601042 165.716756,40.0780921 165.614989,39.4358861 C165.511808,38.79368 165.460924,37.0015103 165.460924,34.059377 L165.460924,26.1040315 C165.460924,23.7411709 165.277178,21.9447103 164.908272,20.7117891 C164.537952,19.4788679 163.713921,18.4376073 162.43335,17.5880073 C161.151366,16.7384073 159.506129,16.3136073 157.49764,16.3136073 C155.735089,16.3136073 154.044622,16.7484194 152.424828,17.6194739 C150.806446,18.4890982 149.258737,19.804977 147.783112,21.56568 C147.720921,19.3487103 147.455195,17.5980194 146.983109,16.3136073 L146.153423,16.3136073 C143.795816,17.0187467 141.490506,17.4950376 139.23608,17.74248 L139.23608,17.74248 Z M178.515396,23.0889527 C177.715392,21.3697285 177.316804,20.3542133 177.316804,20.0424073 C177.316804,19.2557406 178.330236,18.8309406 180.359926,18.7694376 L180.359926,17.3391345 L168.799454,17.3391345 L168.799454,18.7694376 C170.132322,18.7694376 171.075082,19.0068679 171.629148,19.4831588 C172.1818,19.96088 172.878623,21.0994012 173.719616,22.901583 L183.188207,43.4149891 L180.791024,49.475183 C180.379714,50.5107224 179.965578,51.2258739 179.545789,51.6192073 C179.124586,52.0125406 178.289246,52.4888315 177.039771,53.0495103 C174.908314,54.0221164 173.842585,55.2135588 173.842585,56.6224073 C173.842585,57.8453164 174.508312,58.4560558 175.84118,58.4560558 C176.824929,58.4560558 177.7267,57.9854861 178.546491,57.0429164 C179.366283,56.0989164 180.309043,54.32248 181.374772,51.712177 L192.59602,24.3318861 C193.53878,22.0319588 194.327476,20.5458739 194.963521,19.8722012 C195.598153,19.1985285 196.603104,18.8309406 197.976961,18.7694376 L197.976961,17.3391345 L189.1218,17.3391345 L189.1218,18.7694376 C191.397428,18.8109164 192.535242,19.3487103 192.535242,20.3842497 C192.535242,20.6130982 192.114039,21.7630618 191.27446,23.8341406 L185.432739,37.9755467 L178.515396,23.0889527 Z" id="Fill-1" fill="#12284B" mask="url(#mask-2)"></path>
      </g>
      <g id="Group-2" transform="translate(0.000000, 0.068320)" fill="#AA6389">
        <path d="M56.2058824,76.1958764 C54.5863756,76.5548133 48.8638366,75.6075013 44.43944,73.1245024 C40.9312135,71.155276 33.9288553,66.7593545 28.0146253,59.2357553 C25.4578061,55.9842091 23.1039539,52.1499183 21.323765,47.6737638 C20.1947616,44.8360508 18.7641268,40.5161395 17.0093088,31.7623015 C15.3672502,23.5658715 14.7527115,10.1078486 21.6719096,2.41252272 L21.687414,2.29850746 C20.485117,3.03890282 19.3547041,3.93413372 18.3173178,4.9659014 C15.0754853,8.19070324 12.7455944,12.7499059 11.9689641,18.0706178 C8.34797817,42.8626016 24.9743503,68.4287631 45.0906255,75.5652735 C48.5593862,76.7969197 51.0330453,77.2403124 54.054997,76.8771527 C55.0500986,76.7575071 55.8619662,76.5393297 56.2058824,76.1958764" id="Fill-7"></path>
        <path d="M74.6049663,17.9489188 C70.1652575,10.9853743 59.6128854,7.92441341 48.9716331,15.0294071 C48.3179337,15.4664852 46.9804302,16.3816616 46.9804302,16.3816616 C46.6234759,11.3488987 44.3871356,6.61035027 40.5910914,3.79692552 C34.4569248,-0.749252024 27.8912593,-0.940208455 22.519742,1.77985981 C21.8388051,2.7105956 20.9686394,4.12508768 20.1973887,6.05304039 L19.0949877,9.57795465 C18.3409396,12.8072401 18.0298589,16.9333135 18.7953754,22.0268994 C22.0409359,12.999611 31.283042,9.6232184 37.2638185,14.5357494 C40.4878757,17.1850931 41.7379326,21.214981 42.3314229,25.4938195 C48.9874022,20.6307958 58.5907632,16.7352846 63.8920364,25.1755588 C67.1648344,30.3893766 64.9657665,37.4505211 61.2672038,42.0504493 C54.7087059,50.2078252 43.2159241,54.5517303 34.4712604,52.3974589 C32.1087676,51.8146882 30.4630505,50.8203002 28.7556908,49.1752459 C38.5067076,65.9383916 91.8118842,44.9402567 74.6049663,17.9489188 M21.5477942,2.31453782 C21.474683,2.35697258 21.3987048,2.39374938 21.3270272,2.43759863 L21.2811536,2.58470581 C21.3657331,2.49134933 21.4603475,2.40506531 21.5477942,2.31453782" id="Fill-9"></path>
        <path d="M0,39.1455384 C0,39.1455384 8.07420475,45.5928547 18.6840509,43.0975721 C29.2924638,40.6036929 32.1176471,33.3283582 32.1176471,33.3283582 C23.637797,40.8436779 6.64512928,41.3011932 0,39.1455384" id="Fill-11"></path>
      </g>
      <path d="M100.179949,78.7017223 C99.6934775,79.6559766 99.0336662,80.3330496 98.2005147,80.7329413 C97.3659652,81.1328331 96.5509865,81.3320571 95.7541805,81.3320571 C94.2626156,81.3320571 93.0156841,80.7199485 92.0147839,79.4942875 C91.0124858,78.2686266 90.5120358,76.5044833 90.5120358,74.2033013 C90.5120358,71.7750779 90.9705487,69.9084353 91.8875745,68.6033735 C92.8059983,67.2983117 94.0431444,66.6457808 95.6004109,66.6457808 C96.8725047,66.6457808 98.0159912,67.0485598 99.0280746,67.8555616 C100.041556,68.6640069 100.71255,70.1004411 101.041058,72.1677514 L101.512152,72.1677514 L101.380749,66.3512757 L100.898472,66.3512757 C100.83277,67.0384543 100.642655,67.7010907 100.328126,68.3420724 C99.8821947,67.7689424 99.2070065,67.2477839 98.3039597,66.7757095 C97.4009129,66.3036352 96.3944211,66.0683198 95.2830864,66.0683198 C93.9369036,66.0683198 92.7011554,66.3931416 91.5758417,67.0413416 C90.44913,67.6909852 89.5726434,68.6842181 88.9435861,70.0224839 C88.3145287,71.3621933 88,72.7899656 88,74.3058007 C88,76.6142009 88.6821778,78.4692943 90.0451354,79.8725245 C91.4094909,81.2757546 93.1652599,81.9773697 95.3152382,81.9773697 C97.3477925,81.9773697 99.0196872,81.2151212 100.328126,79.6920679 C100.672011,80.1598113 100.909655,80.6982937 101.041058,81.3104023 L101.512152,81.3104023 L101.512152,75.9356843 L101.041058,75.9356843 C100.95299,76.8249742 100.66642,77.7474681 100.179949,78.7017223 L100.179949,78.7017223 Z M106.497082,66.1361715 L106.266428,66.1361715 C105.512957,66.453775 104.570769,66.6111332 103.437068,66.6111332 L103.437068,67.1322917 C104.087094,67.1322917 104.499476,67.2564458 104.671418,67.504754 C104.841963,67.7545059 104.928633,68.3464034 104.928633,69.2818902 L104.928633,78.5154912 C104.928633,79.5491463 104.916052,80.1728042 104.890889,80.3879084 C104.864329,80.6030126 104.773465,80.7878001 104.615502,80.9422709 C104.458937,81.0967417 104.11645,81.174699 103.590837,81.174699 L103.360183,81.174699 L103.360183,81.6944139 L107.922946,81.6944139 L107.922946,81.174699 C107.418302,81.174699 107.071621,81.1111783 106.881506,80.9870242 C106.691391,80.8628701 106.579559,80.6795262 106.546009,80.4384362 C106.513857,80.1973463 106.497082,79.5563646 106.497082,78.5154912 L106.497082,74.8038608 C106.840967,74.1166822 107.23937,73.6027419 107.692291,73.2591526 C108.145213,72.9155634 108.658244,72.7437687 109.228589,72.7437687 C109.717856,72.7437687 110.126044,72.8650355 110.450358,73.1061255 C110.77607,73.3472154 110.98296,73.6532698 111.071028,74.0228448 C111.159096,74.3924198 111.202432,74.9626625 111.202432,75.7321293 L111.202432,78.5154912 C111.202432,79.5404844 111.18985,80.161255 111.16329,80.3763592 C111.138128,80.5914634 111.047264,80.7776946 110.889301,80.9364963 C110.732735,81.0952981 110.387453,81.174699 109.853453,81.174699 L109.645165,81.174699 L109.645165,81.6944139 L114.284813,81.6944139 L114.284813,81.174699 C113.750813,81.174699 113.384562,81.1198402 113.187457,81.0101226 C112.990352,80.900405 112.87153,80.7286104 112.830991,80.4947387 C112.790452,80.260867 112.770881,79.6011178 112.770881,78.5154912 L112.770881,75.9573391 C112.770881,74.9164656 112.69819,74.1643227 112.55141,73.7009103 C112.40463,73.2360542 112.088703,72.846268 111.602232,72.5286645 C111.115761,72.2125046 110.503479,72.0537029 109.765385,72.0537029 C109.115359,72.0537029 108.517056,72.2125046 107.971872,72.5286645 C107.428087,72.846268 106.936025,73.3212297 106.497082,73.9549931 L106.497082,66.1361715 Z M118.274434,72.0537029 C117.1631,72.4160596 116.264246,72.6383821 115.576477,72.7221139 L115.576477,73.2302796 L115.807131,73.2302796 C116.27543,73.2302796 116.601142,73.3010186 116.782869,73.4396092 C116.965995,73.5796435 117.070838,73.7759802 117.096,74.0286194 C117.121162,74.2812586 117.135141,74.9049164 117.135141,75.9010366 L117.135141,78.5154912 C117.135141,79.5866813 117.115571,80.2348812 117.079225,80.4615347 C117.04288,80.6881881 116.931047,80.8628701 116.745126,80.9870242 C116.559204,81.1111783 116.246074,81.174699 115.807131,81.174699 L115.576477,81.174699 L115.576477,81.6944139 L120.347528,81.6944139 L120.347528,81.174699 L120.041386,81.174699 C119.573088,81.174699 119.247376,81.1068473 119.064251,80.971144 C118.882523,80.833997 118.77768,80.6391039 118.752518,80.3821338 C118.725958,80.1251637 118.713376,79.5029495 118.713376,78.5154912 L118.713376,76.8625091 C118.713376,76.0338526 118.776282,75.3813217 118.900696,74.9049164 C119.025109,74.4299548 119.306088,73.972317 119.745031,73.5305593 C120.183973,73.0888017 120.560009,72.8693665 120.874538,72.8693665 C121.137344,72.8693665 121.335847,73.0570413 121.46725,73.4338346 C121.657365,73.9925281 121.93415,74.271153 122.300401,74.271153 C122.504496,74.271153 122.679234,74.1931958 122.82182,74.034394 C122.964406,73.8755922 123.0357,73.6879174 123.0357,73.4684822 C123.0357,73.1436604 122.895909,72.8275006 122.619124,72.5185589 C122.340941,72.2081737 121.96071,72.0537029 121.478433,72.0537029 C120.944433,72.0537029 120.397852,72.2803563 119.83869,72.7336632 C119.27813,73.1855264 118.874136,73.7471072 118.626706,74.4184056 C118.60434,73.4381655 118.486916,72.6499313 118.274434,72.0537029 L118.274434,72.0537029 Z M125.434505,68.1731651 C125.65817,68.4070368 125.926568,68.5239726 126.241096,68.5239726 C126.555625,68.5239726 126.822625,68.4070368 127.042096,68.1731651 C127.261567,67.9392934 127.370604,67.6563375 127.370604,67.3242975 C127.370604,66.9994757 127.261567,66.7208507 127.042096,66.486979 C126.822625,66.2531074 126.555625,66.1361715 126.241096,66.1361715 C125.926568,66.1361715 125.65817,66.2531074 125.434505,66.486979 C125.212238,66.7208507 125.100406,66.9994757 125.100406,67.3242975 C125.100406,67.6563375 125.212238,67.9392934 125.434505,68.1731651 L125.434505,68.1731651 Z M126.976394,72.0537029 C126.259269,72.3178913 125.249981,72.5185589 123.948532,72.6542623 L123.948532,73.1739772 L124.244888,73.1739772 C124.654474,73.1739772 124.941044,73.2042939 125.105997,73.2649273 C125.27095,73.3255607 125.402353,73.4757005 125.501604,73.7167905 C125.599458,73.9593241 125.648384,74.6219605 125.648384,75.7090308 L125.648384,78.5154912 C125.648384,79.5491463 125.635803,80.1728042 125.610641,80.3879084 C125.585479,80.6030126 125.493217,80.7878001 125.336652,80.9422709 C125.178688,81.0967417 124.840395,81.174699 124.321772,81.174699 L123.948532,81.174699 L123.948532,81.6944139 L128.785284,81.6944139 L128.785284,81.174699 L128.556027,81.174699 C128.087729,81.174699 127.762017,81.1068473 127.578892,80.971144 C127.397164,80.833997 127.290923,80.6391039 127.261567,80.3821338 C127.232211,80.1251637 127.216834,79.5029495 127.216834,78.5154912 L127.216834,72.0537029 L126.976394,72.0537029 Z M130.578796,81.988919 C130.70321,81.5659288 130.863969,81.2425506 131.061074,81.0158972 C131.70411,81.7175123 132.439408,82.0683198 133.26557,82.0683198 C134.048397,82.0683198 134.697025,81.8156807 135.212852,81.3104023 C135.728679,80.805124 135.985894,80.1482621 135.985894,79.3412604 C135.985894,78.8287638 135.847501,78.2931687 135.569318,77.7344752 C135.291135,77.1844436 134.530674,76.6185319 133.287937,76.0367399 C132.461775,75.6527284 131.902613,75.3091391 131.609052,75.0074158 C131.309901,74.7129107 131.160325,74.3621031 131.160325,73.9549931 C131.160325,73.5854181 131.294524,73.2605963 131.565717,72.9819714 C131.836911,72.7033465 132.190581,72.5633122 132.629523,72.5633122 C133.199869,72.5633122 133.694727,72.8101767 134.115497,73.3039059 C134.536266,73.7990787 134.820041,74.3895325 134.965423,75.0752674 L135.372213,75.0752674 L135.372213,72.2125046 L134.965423,72.2125046 C134.790685,72.6499313 134.648099,72.9256689 134.537664,73.0382738 C134.026031,72.3828556 133.378801,72.0537029 132.597372,72.0537029 C131.828524,72.0537029 131.233016,72.3308841 130.809451,72.8852467 C130.384487,73.4396092 130.173404,74.0228448 130.173404,74.6335098 C130.173404,75.2744915 130.370508,75.8144175 130.764718,76.2518442 C131.160325,76.6964891 131.810351,77.149796 132.717591,77.6103211 C133.580099,78.0477478 134.161628,78.4202101 134.460779,78.7305954 C134.754339,79.039537 134.899721,79.4350978 134.899721,79.9187214 C134.899721,80.3330496 134.762727,80.7141738 134.488737,81.0606504 C134.214748,81.4085707 133.79957,81.581809 133.243204,81.581809 C131.96412,81.581809 131.076451,80.7026246 130.578796,78.9456996 L130.151037,78.9456996 L130.151037,81.988919 L130.578796,81.988919 Z M142.617556,72.4276088 L139.908416,72.4276088 L139.908416,69.5200928 L139.557542,69.5200928 C139.426139,70.4324812 139.121395,71.1413145 138.646108,71.6465929 C138.17082,72.1518712 137.634024,72.4117287 137.034323,72.4276088 L137.034323,72.9473237 L138.339966,72.9473237 L138.339966,78.1978876 C138.339966,79.2777397 138.388893,80.0313262 138.488144,80.4615347 C138.585998,80.8917431 138.834825,81.2670927 139.233228,81.5875836 C139.631631,81.9080744 140.094337,82.0683198 140.621348,82.0683198 C141.074269,82.0683198 141.521599,81.9412784 141.964735,81.6886392 C142.406473,81.4360001 142.74197,81.0606504 142.968431,80.5625903 L142.617556,80.3474861 C142.228939,80.966813 141.773222,81.2757546 141.246211,81.2757546 C140.975018,81.2757546 140.721997,81.1848045 140.484353,81.004348 C140.246709,80.8238914 140.090144,80.5842451 140.017453,80.2854091 C139.944762,79.9880167 139.908416,79.409112 139.908416,78.5486952 L139.908416,72.9473237 L142.617556,72.9473237 L142.617556,72.4276088 Z M145.312718,68.1731651 C145.534985,68.4070368 145.803383,68.5239726 146.117911,68.5239726 C146.43244,68.5239726 146.69944,68.4070368 146.918911,68.1731651 C147.138382,67.9392934 147.247419,67.6563375 147.247419,67.3242975 C147.247419,66.9994757 147.138382,66.7208507 146.918911,66.486979 C146.69944,66.2531074 146.43244,66.1361715 146.117911,66.1361715 C145.803383,66.1361715 145.534985,66.2531074 145.312718,66.486979 C145.089053,66.7208507 144.97722,66.9994757 144.97722,67.3242975 C144.97722,67.6563375 145.089053,67.9392934 145.312718,68.1731651 L145.312718,68.1731651 Z M146.853209,72.0537029 C146.136084,72.3178913 145.126796,72.5185589 143.825347,72.6542623 L143.825347,73.1739772 L144.121702,73.1739772 C144.531289,73.1739772 144.819257,73.2042939 144.982812,73.2649273 C145.147765,73.3255607 145.279168,73.4757005 145.378419,73.7167905 C145.476273,73.9593241 145.526597,74.6219605 145.526597,75.7090308 L145.526597,78.5154912 C145.526597,79.5491463 145.512618,80.1728042 145.487456,80.3879084 C145.462294,80.6030126 145.370032,80.7878001 145.213466,80.9422709 C145.055503,81.0967417 144.718608,81.174699 144.198587,81.174699 L143.825347,81.174699 L143.825347,81.6944139 L148.663497,81.6944139 L148.663497,81.174699 L148.432842,81.174699 C147.964544,81.174699 147.638832,81.1068473 147.457104,80.971144 C147.273979,80.833997 147.167738,80.6391039 147.138382,80.3821338 C147.109026,80.1251637 147.095047,79.5029495 147.095047,78.5154912 L147.095047,72.0537029 L146.853209,72.0537029 Z M158.043441,81.1068473 C157.751279,81.1068473 157.561164,80.9812496 157.473096,80.7329413 C157.386425,80.4831895 157.341693,79.9216087 157.341693,79.0467553 L157.341693,75.3019208 C157.341693,74.5093557 157.259216,73.9217891 157.095661,73.5363339 C156.930708,73.1523224 156.592415,72.8087331 156.080782,72.5070097 C155.569149,72.2052864 154.849227,72.0537029 153.91962,72.0537029 C152.669893,72.0537029 151.748674,72.3005674 151.155962,72.7957402 C150.56325,73.2894693 150.268292,73.7514381 150.268292,74.1816466 C150.268292,74.6190732 150.490559,74.8370648 150.936491,74.8370648 C151.434145,74.8370648 151.741684,74.4530532 151.85771,73.6835865 C151.982124,72.9285562 152.593008,72.5517629 153.690364,72.5517629 C154.238343,72.5517629 154.680081,72.6643678 155.016976,72.8910213 C155.352473,73.1176747 155.560761,73.3746448 155.64184,73.660488 C155.722918,73.9477749 155.76206,74.4111873 155.76206,75.052169 L155.76206,75.5054758 L154.062207,76.2186401 C152.767747,76.7686717 151.754265,77.3345835 151.018967,77.9149318 C150.283669,78.4967237 149.91602,79.1752403 149.91602,79.9519254 C149.91602,80.5481538 150.135491,81.0274464 150.574433,81.3883595 C151.013375,81.7507163 151.536192,81.9326165 152.142883,81.9326165 C152.618171,81.9326165 153.157762,81.7969132 153.761657,81.5255065 C154.364154,81.2526562 155.030955,80.8498772 155.76206,80.3142821 C155.850128,80.8498772 156.038845,81.2526562 156.326813,81.5255065 C156.61618,81.7969132 157.008991,81.9326165 157.506645,81.9326165 C158.669703,81.9326165 159.283383,81.2873039 159.349084,79.9966786 L158.943692,79.9966786 C158.826268,80.7372723 158.527116,81.1068473 158.043441,81.1068473 L158.043441,81.1068473 Z M155.76206,79.7036171 C155.200102,80.1713605 154.691264,80.5221681 154.238343,80.7560398 C153.784024,80.9899115 153.385621,81.1068473 153.043134,81.1068473 C152.654516,81.1068473 152.339988,80.9610384 152.099548,80.6708643 C151.85771,80.3806901 151.73749,79.9966786 151.73749,79.5217169 C151.73749,78.3220418 152.681076,77.3273652 154.566851,76.5348 L155.76206,76.0367399 L155.76206,79.7036171 Z M160.422676,72.5748614 L160.422676,73.0945763 C160.949686,73.0945763 161.308948,73.153766 161.503256,73.2707019 C161.696167,73.3876377 161.813591,73.560876 161.854131,73.7904167 C161.89467,74.0214011 161.914241,74.6753757 161.914241,75.7537841 L161.914241,78.5154912 C161.914241,79.645871 161.890476,80.3200567 161.842947,80.5351609 C161.795419,80.7502652 161.672403,80.9105106 161.475298,81.0158972 C161.278194,81.1212838 160.92732,81.174699 160.422676,81.174699 L160.422676,81.6944139 L164.963072,81.6944139 L164.963072,81.174699 C164.43746,81.174699 164.0768,81.1155092 163.882491,80.9985734 C163.68958,80.8816375 163.572156,80.7069556 163.531617,80.4730839 C163.491078,80.2392122 163.471507,79.5866813 163.471507,78.5154912 L163.471507,74.7360091 C163.90346,74.0791472 164.361973,73.5868617 164.848444,73.2591526 C165.334915,72.9314435 165.843752,72.7668672 166.377752,72.7668672 C166.84605,72.7668672 167.231872,72.888134 167.535218,73.1292239 C167.838563,73.3703139 168.024485,73.6474952 168.09438,73.9607677 C168.164275,74.2740403 168.199223,74.7966425 168.199223,75.5271306 L168.199223,78.5154912 C168.199223,79.5491463 168.188039,80.1713605 168.165673,80.3821338 C168.144704,80.592907 168.052443,80.7776946 167.891684,80.9364963 C167.730924,81.0952981 167.38704,81.174699 166.861427,81.174699 L166.651742,81.174699 L166.651742,81.6944139 L171.248054,81.6944139 L171.248054,81.174699 C170.728033,81.174699 170.372965,81.1155092 170.178657,80.9985734 C169.984348,80.8816375 169.869719,80.7069556 169.833374,80.4730839 C169.797028,80.2392122 169.778856,79.5866813 169.778856,78.5154912 L169.778856,75.6180807 C169.778856,74.7591075 169.713154,74.1036893 169.580353,73.6547134 C169.44895,73.2057375 169.15539,72.8275006 168.698275,72.5185589 C168.24116,72.2081737 167.65404,72.0537029 166.936914,72.0537029 C166.309255,72.0537029 165.70536,72.2125046 165.128025,72.5286645 C164.55069,72.846268 163.998517,73.3255607 163.471507,73.9665423 C163.449141,73.1595406 163.354083,72.5214462 163.186334,72.0537029 L162.889979,72.0537029 C162.049837,72.310673 161.226471,72.4839113 160.422676,72.5748614 L160.422676,72.5748614 Z M189.555021,78.7017223 C189.06855,79.6559766 188.408739,80.3330496 187.575587,80.7329413 C186.741038,81.1328331 185.926059,81.3320571 185.129253,81.3320571 C183.637688,81.3320571 182.390757,80.7199485 181.388459,79.4942875 C180.387559,78.2686266 179.885711,76.5044833 179.885711,74.2033013 C179.885711,71.7750779 180.345621,69.9084353 181.262647,68.6033735 C182.181071,67.2983117 183.418217,66.6457808 184.975484,66.6457808 C186.247577,66.6457808 187.389666,67.0485598 188.403147,67.8555616 C189.415231,68.6640069 190.086225,70.1004411 190.416131,72.1677514 L190.887225,72.1677514 L190.755822,66.3512757 L190.273545,66.3512757 C190.207843,67.0384543 190.017728,67.7010907 189.703199,68.3420724 C189.257268,67.7689424 188.582079,67.2477839 187.679032,66.7757095 C186.775986,66.3036352 185.769494,66.0683198 184.658159,66.0683198 C183.311976,66.0683198 182.076228,66.3931416 180.950914,67.0413416 C179.824203,67.6909852 178.946318,68.6842181 178.318659,70.0224839 C177.689601,71.3621933 177.375073,72.7899656 177.375073,74.3058007 C177.375073,76.6142009 178.055853,78.4692943 179.420208,79.8725245 C180.784564,81.2757546 182.540333,81.9773697 184.690311,81.9773697 C186.722865,81.9773697 188.393362,81.2151212 189.703199,79.6920679 C190.045686,80.1598113 190.284728,80.6982937 190.416131,81.3104023 L190.887225,81.3104023 L190.887225,75.9356843 L190.416131,75.9356843 C190.328063,76.8249742 190.041492,77.7474681 189.555021,78.7017223 L189.555021,78.7017223 Z M201.249897,81.1068473 C200.956337,81.1068473 200.766222,80.9812496 200.679551,80.7329413 C200.591483,80.4831895 200.548148,79.9216087 200.548148,79.0467553 L200.548148,75.3019208 C200.548148,74.5093557 200.465672,73.9217891 200.300719,73.5363339 C200.135766,73.1523224 199.797473,72.8087331 199.28584,72.5070097 C198.774207,72.2052864 198.054285,72.0537029 197.126076,72.0537029 C195.874951,72.0537029 194.953731,72.3005674 194.36102,72.7957402 C193.769706,73.2894693 193.47335,73.7514381 193.47335,74.1816466 C193.47335,74.6190732 193.695617,74.8370648 194.141548,74.8370648 C194.639203,74.8370648 194.946742,74.4530532 195.064166,73.6835865 C195.187182,72.9285562 195.798066,72.5517629 196.895422,72.5517629 C197.443401,72.5517629 197.886537,72.6643678 198.222034,72.8910213 C198.558929,73.1176747 198.767217,73.3746448 198.846898,73.660488 C198.927976,73.9477749 198.968515,74.4111873 198.968515,75.052169 L198.968515,75.5054758 L197.268663,76.2186401 C195.974202,76.7686717 194.959323,77.3345835 194.224025,77.9149318 C193.490125,78.4967237 193.122476,79.1752403 193.122476,79.9519254 C193.122476,80.5481538 193.341947,81.0274464 193.780889,81.3883595 C194.218433,81.7507163 194.74125,81.9326165 195.349339,81.9326165 C195.823229,81.9326165 196.36282,81.7969132 196.966715,81.5255065 C197.569212,81.2526562 198.237411,80.8498772 198.968515,80.3142821 C199.055185,80.8498772 199.243903,81.2526562 199.533269,81.5255065 C199.821238,81.7969132 200.214049,81.9326165 200.711703,81.9326165 C201.87476,81.9326165 202.488441,81.2873039 202.554142,79.9966786 L202.14875,79.9966786 C202.031326,80.7372723 201.732174,81.1068473 201.249897,81.1068473 L201.249897,81.1068473 Z M198.968515,79.7036171 C198.40516,80.1713605 197.896322,80.5221681 197.443401,80.7560398 C196.990479,80.9899115 196.592076,81.1068473 196.248192,81.1068473 C195.860972,81.1068473 195.546443,80.9610384 195.304606,80.6708643 C195.064166,80.3806901 194.942548,79.9966786 194.942548,79.5217169 C194.942548,78.3220418 195.886134,77.3273652 197.773306,76.5348 L198.968515,76.0367399 L198.968515,79.7036171 Z M206.356445,72.0537029 C205.24511,72.4160596 204.344859,72.6383821 203.658488,72.7221139 L203.658488,73.2302796 L203.887744,73.2302796 C204.356042,73.2302796 204.681754,73.3010186 204.86488,73.4396092 C205.046607,73.5796435 205.15145,73.7759802 205.176613,74.0286194 C205.203173,74.2812586 205.215754,74.9049164 205.215754,75.9010366 L205.215754,78.5154912 C205.215754,79.5866813 205.197581,80.2348812 205.161236,80.4615347 C205.123492,80.6881881 205.013058,80.8628701 204.825738,80.9870242 C204.639817,81.1111783 204.326686,81.174699 203.887744,81.174699 L203.658488,81.174699 L203.658488,81.6944139 L208.429538,81.6944139 L208.429538,81.174699 L208.121999,81.174699 C207.653701,81.174699 207.327989,81.1068473 207.146261,80.971144 C206.963136,80.833997 206.858293,80.6391039 206.83313,80.3821338 C206.807968,80.1251637 206.795387,79.5029495 206.795387,78.5154912 L206.795387,76.8625091 C206.795387,76.0338526 206.856895,75.3813217 206.981308,74.9049164 C207.105722,74.4299548 207.386701,73.972317 207.825643,73.5305593 C208.264585,73.0888017 208.640622,72.8693665 208.955151,72.8693665 C209.219355,72.8693665 209.416459,73.0570413 209.547862,73.4338346 C209.737977,73.9925281 210.016161,74.271153 210.381014,74.271153 C210.586506,74.271153 210.759846,74.1931958 210.902433,74.034394 C211.045019,73.8755922 211.116312,73.6879174 211.116312,73.4684822 C211.116312,73.1436604 210.976522,72.8275006 210.699736,72.5185589 C210.421553,72.2081737 210.041323,72.0537029 209.559046,72.0537029 C209.025046,72.0537029 208.478465,72.2803563 207.919303,72.7336632 C207.360141,73.1855264 206.956146,73.7471072 206.707319,74.4184056 C206.684952,73.4381655 206.567528,72.6499313 206.356445,72.0537029 L206.356445,72.0537029 Z M218.979529,73.1624279 C218.335095,72.4232779 217.425059,72.0537029 216.248022,72.0537029 C214.998295,72.0537029 213.955458,72.5387701 213.122306,73.5074609 C212.289155,74.4775953 211.872579,75.6931507 211.872579,77.1570142 C211.872579,78.1906694 212.087856,79.0698537 212.519809,79.7931236 C212.950364,80.5178371 213.503934,81.0779743 214.18052,81.473535 C214.857107,81.8705395 215.57563,82.0683198 216.33609,82.0683198 C217.155263,82.0683198 217.91153,81.851772 218.606288,81.4172326 C219.301047,80.9841369 219.765152,80.3821338 220,79.612667 L219.47299,79.612667 C218.916623,80.8426589 217.974435,81.4576549 216.643629,81.4576549 C215.663698,81.4576549 214.927002,81.0476576 214.433541,80.2291066 C213.940081,79.4105557 213.692651,78.1863384 213.692651,76.5578985 C213.692651,76.3384633 213.706631,76.0064232 213.735987,75.5617783 L220,75.5617783 C219.962257,74.7013614 219.622566,73.9030216 218.979529,73.1624279 L218.979529,73.1624279 Z M213.780719,75.1084714 C214.036536,73.4049615 214.829148,72.5517629 216.159954,72.5517629 C216.709331,72.5517629 217.17064,72.7351068 217.548074,73.1003509 C217.924111,73.4670386 218.112828,73.9809789 218.112828,74.645059 C218.112828,74.7807623 218.101645,74.9352331 218.079278,75.1084714 L213.780719,75.1084714 Z" id="Fill-4" fill="#AA6389"></path>
    </g>
  </g>
</svg>
