<?xml version="1.0" encoding="UTF-8"?>
<svg width="1435px" height="227px" viewBox="0 0 1435 227" version="1.1" xmlns="http://www.w3.org/2000/svg" xmlns:xlink="http://www.w3.org/1999/xlink">
    <title>Artboard</title>
    <defs>
        <path d="M1114.26225,1567.82159 C1058.29476,1532.54639 1001.01252,1496.07473 961.435587,1443.0919 C921.862555,1390.11296 903.313852,1316.16383 932.668834,1256.91855 C945.426789,1231.1703 966.153109,1209.94137 978.375424,1183.93437 C1015.12807,1105.74219 963.034714,1011.89678 893.590538,960.41974 C824.146362,908.942699 738.629111,883.077723 667.661771,833.715404 C596.694431,784.349194 539.408294,695.340215 568.938576,614.153957 C595.578354,540.930493 680.055491,505.458804 720.880945,439.075599 C773.671608,353.241622 741.200179,243.587353 724.028557,144.321876 C721.383473,129.028564 719.244811,112.760574 725.197224,98.4263779 C741.15538,60.0150893 795.609447,64.2114603 835.388944,51.9316764 C888.249727,35.6131043 921.510007,-17.9144583 934.922415,-71.5276214 C948.332876,-125.14273 946.638308,-181.337527 955.559137,-235.878677 C976.026402,-361.042204 1055.60293,-475.258591 1165.99721,-537.922063 C1188.3285,-550.596777 1213.0692,-561.510844 1238.70392,-559.828015 C1260.32232,-558.411716 1280.31823,-548.161053 1298.8085,-536.881239 C1520.42683,-401.647979 1595.5332,-109.349434 1571.8073,148.959868 C1548.0814,407.269169 1447.36562,652.096388 1400.13782,907.164543 C1376.57943,1034.40777 1366.41981,1163.85327 1363.68318,1293.2229 C1362.26909,1360.21698 1362.15807,1430.16428 1331.53508,1489.78893 C1300.91405,1549.41164 1228.51509,1593.80913 1166.20758,1568.96358" id="path-1"></path>
    </defs>
    <g id="Artboard" stroke="none" stroke-width="1" fill="none" fill-rule="evenodd">
        <g id="Group-18" transform="translate(895.500000, -286.000000) scale(-1, -1) translate(-895.500000, 286.000000) translate(-173.000000, -794.000000)">
            <g id="Rectangle-Copy" transform="translate(0.000000, 0.000000)">
                <mask id="mask-2" fill="white">
                    <use xlink:href="#path-1"></use>
                </mask>
                <use id="Mask" fill="#FFFFFF" transform="translate(1068.500000, 508.000000) rotate(-90.000000) translate(-1068.500000, -508.000000) " xlink:href="#path-1"></use>
                <rect fill="#F5DEDA" mask="url(#mask-2)" x="526" y="-337" width="1440" height="890"></rect>
            </g>
        </g>
    </g>
</svg>