<?xml version="1.0" encoding="UTF-8"?>
<svg width="200px" height="647px" viewBox="0 0 200 647" version="1.1" xmlns="http://www.w3.org/2000/svg" xmlns:xlink="http://www.w3.org/1999/xlink">
    <title>Artboard</title>
    <g id="Artboard" stroke="none" stroke-width="1" fill="none" fill-rule="evenodd">
        <g id="Group-18" transform="translate(-168.000000, -387.000000)">
            <path d="M623.466453,921.595228 C566.590095,944.740885 490.217263,967.494511 449.912447,905.841162 C419.282709,858.987772 435.286407,787.663048 391.070331,752.426792 C367.824607,733.905582 335.285244,732.226514 305.210995,729.29606 C275.136746,726.365607 241.971168,719.415698 225.069337,695.299505 C214.407881,680.080997 212.371043,660.647358 213.187786,642.195342 C215.680351,586.005902 241.218697,528.107646 221.578816,475.371597 C205.811478,433.04253 164.862849,405.540417 133.929643,372.035766 C87.6867957,321.950041 62.4633484,254.1628 64.9723186,186.725082 C66.1482488,155.145291 74.6709414,121.259979 99.8349951,100.892968 C115.352417,88.3320758 135.334351,82.4405896 154.856218,77.4570703 C294.514686,41.8094571 440.065157,37.2071321 584.143842,32.8036904 C592.083558,32.560696 600.493563,32.4269673 607.337185,36.2597176 C617.667553,42.0464922 621.020195,54.7180871 623.048203,66.1249478 C633.342817,124.012736 633.701168,183.161855 633.762178,241.992618 C633.993755,467.937377 632.083467,693.854793 631.932709,919.802915" id="Fill-1" fill="#3BBEAD" transform="translate(349.291537, 489.135735) rotate(8.000000) translate(-349.291537, -489.135735) "></path>
            <path d="M865.975099,1300.13983 C789.418645,1331.30513 686.619656,1361.94252 632.368929,1278.92674 C591.140963,1215.83899 612.682333,1119.80091 553.166934,1072.3555 C521.877895,1047.4168 478.079444,1045.15588 437.599076,1041.20999 C397.118707,1037.26409 352.477375,1027.90603 329.727321,995.433749 C315.37688,974.942138 312.63531,948.774909 313.7347,923.929434 C317.089856,848.270851 351.464969,770.311411 325.029524,699.302741 C303.806554,642.306989 248.689168,605.275545 207.0527,560.161759 C144.809271,492.721668 110.858298,401.446687 114.23556,310.642396 C115.81845,268.120487 127.290194,222.494229 161.161421,195.070283 C182.048123,178.157185 208.94411,170.224394 235.220837,163.514171 C423.203237,115.515277 619.11629,109.318604 813.048296,103.389722 C823.735269,103.06255 835.055258,102.882504 844.266865,108.043283 C858.171676,115.835147 862.684351,132.897346 865.414054,148.256589 C879.270624,226.202011 879.752835,305.845782 879.834823,385.060888 C880.146021,689.293528 877.574237,993.489344 877.370805,1297.72651 L419.13356,784.476151" id="Fill-1-Copy-4" fill="#AA6389" transform="translate(496.933230, 717.836765) rotate(8.000000) translate(-496.933230, -717.836765) "></path>
        </g>
    </g>
</svg>