<?xml version="1.0" encoding="UTF-8"?>
<svg width="239px" height="592px" viewBox="0 0 239 592" version="1.1" xmlns="http://www.w3.org/2000/svg" xmlns:xlink="http://www.w3.org/1999/xlink">
    <title>Artboard</title>
    <defs>
        <polygon id="path-1" points="0 0 37 0 37 37 0 37"></polygon>
    </defs>
    <g id="Artboard" stroke="none" stroke-width="1" fill="none" fill-rule="evenodd">
        <g id="corner-curves" transform="translate(-149.000000, -446.000000)" fill-rule="nonzero">
            <path d="M619.466453,924.595228 C562.590095,947.740885 486.217263,970.494511 445.912447,908.841162 C415.282709,861.987772 431.286407,790.663048 387.070331,755.426792 C363.824607,736.905582 331.285244,735.226514 301.210995,732.29606 C271.136746,729.365607 237.971168,722.415698 221.069337,698.299505 C210.407881,683.080997 208.371043,663.647358 209.187786,645.195342 C211.680351,589.005902 237.218697,531.107646 217.578816,478.371597 C201.811478,436.04253 160.862849,408.540417 129.929643,375.035766 C83.6867957,324.950041 58.4633484,257.1628 60.9723186,189.725082 C62.1482488,158.145291 70.6709414,124.259979 95.8349951,103.892968 C111.352417,91.3320758 131.334351,85.4405896 150.856218,80.4570703 C290.514686,44.8094571 436.065157,40.2071321 580.143842,35.8036904 C588.083558,35.560696 596.493563,35.4269673 603.337185,39.2597176 C613.667553,45.0464922 617.020195,57.7180871 619.048203,69.1249478 C629.342817,127.012736 629.701168,186.161855 629.762178,244.992618 C629.993755,470.937377 628.083467,696.854793 627.932709,922.802915" id="Fill-1" fill="#3BBEAD" transform="translate(345.291537, 492.135735) rotate(8.000000) translate(-345.291537, -492.135735) "></path>
            <path d="M861.975099,1303.13983 C785.418645,1334.30513 682.619656,1364.94252 628.368929,1281.92674 C587.140963,1218.83899 608.682333,1122.80091 549.166934,1075.3555 C517.877895,1050.4168 474.079444,1048.15588 433.599076,1044.20999 C393.118707,1040.26409 348.477375,1030.90603 325.727321,998.433749 C311.37688,977.942138 308.63531,951.774909 309.7347,926.929434 C313.089856,851.270851 347.464969,773.311411 321.029524,702.302741 C299.806554,645.306989 244.689168,608.275545 203.0527,563.161759 C140.809271,495.721668 106.858298,404.446687 110.23556,313.642396 C111.81845,271.120487 123.290194,225.494229 157.161421,198.070283 C178.048123,181.157185 204.94411,173.224394 231.220837,166.514171 C419.203237,118.515277 615.11629,112.318604 809.048296,106.389722 C819.735269,106.06255 831.055258,105.882504 840.266865,111.043283 C854.171676,118.835147 858.684351,135.897346 861.414054,151.256589 C875.270624,229.202011 875.752835,308.845782 875.834823,388.060888 C876.146021,692.293528 873.574237,996.489344 873.370805,1300.72651 L415.13356,787.476151" id="Fill-1-Copy-4" fill="#AA6389" transform="translate(492.933229, 720.836766) rotate(8.000000) translate(-492.933229, -720.836766) "></path>
        </g>
        <g id="Group-6" transform="translate(158.000000, 47.000000)">
            <mask id="mask-2" fill="white">
                <use xlink:href="#path-1"></use>
            </mask>
            <g id="Clip-2"></g>
            <path d="M23.0636938,5.9470406 C20.8820576,3.78899288 17.8664772,2.4535088 14.5378691,2.4535088 C11.2068715,2.4535088 8.19129115,3.78899288 6.00965497,5.9470406 C3.82801879,8.10508832 2.47793726,11.0880634 2.47793726,14.3806816 C2.47793726,17.6756636 3.82801879,20.6586386 6.00965497,22.8166864 C8.19129115,24.9747341 11.2068715,26.3102182 14.5378691,26.3102182 C17.8664772,26.3102182 20.8820576,24.9747341 23.0636938,22.8166864 C25.2453299,20.6586386 26.597801,17.6756636 26.597801,14.3806816 C26.597801,11.0880634 25.2453299,8.10508832 23.0636938,5.9470406 M26.4209762,28.269716 L34.8846731,36.6419012 C35.3673572,37.1193663 36.1535108,37.1193663 36.6361948,36.6419012 C37.1212684,36.1644361 37.1212684,35.3867825 36.6361948,34.9069537 L28.1748874,26.5371323 C27.6922034,26.0573035 26.9036602,26.0573035 26.4209762,26.5371323 C25.9382921,27.0145974 25.9382921,27.7922509 26.4209762,28.269716 M14.5378691,0 C18.5498813,0 22.1867381,1.61203565 24.8152155,4.21445683 C27.4460823,6.81687801 29.0757383,10.4120484 29.0757383,14.3806816 C29.0757383,18.3540422 27.4460823,21.9492126 24.8152155,24.5516338 C22.1867381,27.1516913 18.5498813,28.763727 14.5378691,28.763727 C10.5234674,28.763727 6.88661059,27.1516913 4.25813326,24.5516338 C1.62726642,21.9492126 2.43426678e-15,18.3540422 2.43426678e-15,14.3806816 C2.43426678e-15,10.4120484 1.62726642,6.81687801 4.25813326,4.21445683 C6.88661059,1.61203565 10.5234674,0 14.5378691,0" id="Fill-1" fill="#FFFFFF" mask="url(#mask-2)"></path>
        </g>
    </g>
</svg>