<?xml version="1.0" encoding="UTF-8"?>
<svg width="307px" height="310px" viewBox="0 0 307 310" version="1.1" xmlns="http://www.w3.org/2000/svg" xmlns:xlink="http://www.w3.org/1999/xlink">
    <title>Artboard</title>
    <defs>
        <rect id="path-1" x="0" y="0" width="370" height="359"></rect>
    </defs>
    <g id="Artboard" stroke="none" stroke-width="1" fill="none" fill-rule="evenodd">
        <g id="Group-20" transform="translate(0.000000, -49.000000)">
            <mask id="mask-2" fill="white">
                <use xlink:href="#path-1"></use>
            </mask>
            <g id="Mask"></g>
            <g mask="url(#mask-2)" id="Fill-1">
                <g transform="translate(-487.000000, -165.000000)">
                    <path d="M1156.59445,799.337832 C1171.52388,731.303919 1181.97221,641.638923 1102.53767,609.281169 C1042.16954,584.689049 963.226592,616.995751 913.448596,574.915354 C887.284282,552.794547 878.617046,516.899052 869.019556,484.006193 C859.422067,451.113334 844.549361,415.594114 813.242184,401.673832 C793.489432,392.890932 770.654743,394.569988 749.544425,399.22899 C685.262422,413.415879 623.77496,453.61301 558.897368,442.453338 C506.822101,433.494591 466.639704,393.482761 421.60373,365.842625 C354.281388,324.520451 270.893271,310.204986 193.642557,326.694904 C157.468568,334.417049 120.154451,350.789737 101.868927,382.947063 C90.5943347,402.778076 87.9302561,426.224354 86.2229013,448.974807 C73.9915854,611.729792 98.7832092,774.738149 123.501093,936.06934 C124.860549,944.960017 126.446895,954.349873 132.281775,961.194674 C141.092709,971.52049 156.398398,972.681459 169.970262,972.624857 C238.858152,972.327874 307.142891,960.712513 375.000318,948.832435 C635.609217,903.201062 895.743535,855.187244 1156.27869,809.130435" fill="#FF9D6C" transform="translate(625.000000, 646.312429) scale(-1, 1) rotate(-40.000000) translate(-625.000000, -646.312429) "></path>
                    <path d="M671.77399,727.102293 C629.986231,744.506213 573.845221,761.544199 543.961357,714.518128 C521.251045,678.780721 532.783788,624.595626 500.112599,597.645522 C482.936382,583.479741 458.977428,582.089687 436.82876,579.756557 C414.680092,577.423428 390.241836,572.022846 377.716078,553.624277 C369.814969,542.013887 368.24802,527.227984 368.785084,513.198507 C370.424543,470.476446 389.022689,426.535019 374.381856,386.362209 C362.627897,354.117129 332.388858,333.060019 309.501573,307.472955 C275.286786,269.223135 256.4834,217.584835 258.095821,166.308784 C258.851643,142.297196 265.007601,116.557864 283.460728,101.156752 C294.839849,91.658458 309.528611,87.2476149 323.881862,83.5256591 C426.564324,56.9021934 533.692004,53.9084196 639.736954,51.0607734 C645.580751,50.9035941 651.771121,50.8311443 656.822226,53.7696598 C664.446815,58.2062901 666.958849,67.8543953 668.491386,76.5360937 C676.270826,120.594178 676.740296,165.576918 676.989779,210.316522 C677.945925,382.142928 677.32529,553.941091 678,725.768725" fill="#AA6389" transform="translate(468.000000, 398.000000) rotate(160.000000) translate(-468.000000, -398.000000) "></path>
                </g>
            </g>
        </g>
    </g>
</svg>