<?xml version="1.0" encoding="UTF-8"?>
<svg width="34px" height="45px" viewBox="0 0 34 45" version="1.1" xmlns="http://www.w3.org/2000/svg" xmlns:xlink="http://www.w3.org/1999/xlink">
    <title>Artboard</title>
    <g id="Artboard" stroke="none" stroke-width="1" fill="none" fill-rule="evenodd">
        <path d="M18.7471415,44.0920514 C31.6120555,25.5789002 34,23.6788676 34,16.8749879 C34,7.55515512 26.3888753,3.55271368e-15 17,3.55271368e-15 C7.61112467,3.55271368e-15 0,7.55515512 0,16.8749879 C0,23.6788676 2.38794454,25.5789002 15.2528585,44.0920514 C16.0970306,45.3026066 17.9028829,45.3026924 18.7471415,44.0920514 Z M17,23 C13.134021,23 10,19.865979 10,16 C10,12.134021 13.134021,9 17,9 C20.865979,9 24,12.134021 24,16 C24,19.865979 20.865979,23 17,23 Z" id="m-copy-2" fill="#12284B"></path>
    </g>
</svg>