<?xml version="1.0" encoding="utf-8"?>
<!-- Generator: Adobe Illustrator 24.2.3, SVG Export Plug-In . SVG Version: 6.00 Build 0)  -->
<svg version="1.1" id="Layer_1" xmlns="http://www.w3.org/2000/svg" xmlns:xlink="http://www.w3.org/1999/xlink" x="0px" y="0px"
	 viewBox="0 0 868 490" style="enable-background:new 0 0 868 490;" xml:space="preserve">
<style type="text/css">
	.st0{fill-rule:evenodd;clip-rule:evenodd;fill:#FFF5F0;}
	.st1{fill-rule:evenodd;clip-rule:evenodd;fill:#FF9D6C;}
</style>
<path id="Combined-Shape" class="st0" d="M864.8,272.2c-14,79.1-75.1,139.9-117.5,208.2c-2,3.2-3.9,6.4-5.8,9.6L0,490V0l804.6,0
	C828.6,91.4,881.1,179.7,864.8,272.2z"/>
<path class="st1" d="M741.5,490c1.9-3.2,3.8-6.4,5.8-9.6c42.4-68.3,103.5-129.1,117.5-208.2c13.3-75.3-19-147.7-44.4-221.3
	c-10.6,5.8-19.8,13.4-26.6,23.5c-12.1,17.9-14.4,40.7-13.5,62.3c2.8,65.8,31.7,133.3,9.5,195.3c-17.9,49.7-64.2,82.4-99.3,121.9
	c-10,11.3-19.2,23.4-27.4,36.1H741.5z"/>
</svg>
