<?xml version="1.0" encoding="UTF-8"?>
<svg width="102px" height="102px" viewBox="0 0 102 102" version="1.1" xmlns="http://www.w3.org/2000/svg" xmlns:xlink="http://www.w3.org/1999/xlink">
    <title>Artboard</title>
    <g id="Artboard" stroke="none" stroke-width="1" fill="none" fill-rule="evenodd">
        <g id="Group-13" fill="#AA6389">
            <path d="M74,100.69508 C71.8640825,101.165965 64.3168022,99.9231976 58.481602,96.6657808 C53.8547102,94.0823761 44.619516,88.3154189 36.8194204,78.4452985 C33.4473104,74.1796337 30.3428872,69.1494732 27.995051,63.2772594 C26.5060432,59.5544974 24.6192232,53.8872571 22.3048478,42.4032012 C20.1391873,31.6504021 19.3286912,13.9949819 28.4542082,3.89957526 L28.4746565,3.75 C26.8889841,4.72131587 25.3981174,5.89575864 24.0299404,7.24932239 C19.7543876,11.4799016 16.6815663,17.4610653 15.6572925,24.441244 C10.8816859,56.9655528 32.8096953,90.5054961 59.3404304,99.8677993 C63.915272,101.483581 67.1777048,102.065263 71.1632636,101.588838 C72.4756725,101.431876 73.5464196,101.145652 74,100.69508" id="Fill-7"></path>
            <path d="M97.5603406,24.1768356 C91.7545675,15.0880534 77.9553117,11.0929032 64.0398279,20.3663041 C63.1849902,20.9367761 61.4359471,22.1312596 61.4359471,22.1312596 C60.9691607,15.5625237 58.0447158,9.37779483 53.080658,5.70572747 C45.0590556,-0.22791985 36.4731852,-0.477155191 29.4488934,3.07306378 C28.5584375,4.2878553 27.4205284,6.13404302 26.4119699,8.65039687 L24.9703685,13.2510967 C23.9843056,17.4659432 23.5775079,22.8512728 24.5785679,29.4993947 C28.8227623,17.7170247 40.9085933,13.3101747 48.7296089,19.7219846 C52.9456836,23.1798942 54.5803734,28.439683 55.3564761,34.0244008 C64.060449,27.6772075 76.6186904,22.5928065 83.5511246,33.6090086 C87.8309372,40.4140565 84.9552331,49.6302256 80.1186511,55.634028 C71.5421539,66.2809926 56.5131315,71.950635 45.077802,69.1388912 C41.9883884,68.3782618 39.8362969,67.0803919 37.6035956,64.9332755 C50.3549254,86.8124462 120.061695,59.4057895 97.5603406,24.1768356" id="Path"></path>
            <path d="M28.186,3.559 C28.084,3.619 27.978,3.671 27.878,3.733 L27.814,3.941 C27.932,3.809 28.064,3.687 28.186,3.559" id="Path"></path>
            <path d="M0,52.6237591 C0,52.6237591 10.5585754,61.3504296 24.4329897,57.9729764 C38.3055295,54.5974227 42,44.75 42,44.75 C30.9109653,54.9222509 8.68978444,55.541514 0,52.6237591" id="Fill-11"></path>
        </g>
    </g>
</svg>