<?xml version="1.0" encoding="UTF-8"?>
<svg width="170px" height="640px" viewBox="0 0 170 640" version="1.1" xmlns="http://www.w3.org/2000/svg" xmlns:xlink="http://www.w3.org/1999/xlink">
    <title>Header Copy 3</title>
    <g id="Header-Copy-3" stroke="none" stroke-width="1" fill="none" fill-rule="evenodd">
        <path d="M170,1.08357767e-13 L170.000935,344.984825 C151.392232,333.174712 128.042177,328.251666 106.18927,322.798026 C77.7895931,315.710566 46.9710343,304.212536 34.0337399,277.97876 C25.8739126,261.424569 26.5387344,241.896584 29.8035759,223.737811 C39.7507738,168.442101 71.992632,114.661557 60.2848768,59.7053885 C55.588412,37.667181 44.3762248,18.4190534 31.2000794,-0.000348138807 L170,1.08357767e-13 Z" id="Combined-Shape" fill="#AA6389"></path>
        <path d="M170,-5.68434189e-14 L169.99926,612.990732 C151.280185,603.343436 135.256148,590.184872 126.01373,571.435645 C115.031496,549.146261 115.927645,522.852137 120.323392,498.401462 C133.71619,423.94613 177.118029,351.529478 161.362724,277.532756 C148.712448,218.138016 100.924278,173.796102 67.1306912,123.326684 C42.141852,86.0078028 24.5653411,43.8773962 15.0523406,0.000581513891 L170,-5.68434189e-14 Z" id="Combined-Shape" fill="#3BBEAD"></path>
    </g>
</svg>