<?xml version="1.0" encoding="UTF-8"?>
<svg width="37px" height="37px" viewBox="0 0 37 37" version="1.1" xmlns="http://www.w3.org/2000/svg" xmlns:xlink="http://www.w3.org/1999/xlink">
    <title>Fill 1</title>
    <g id="Version-2" stroke="none" stroke-width="1" fill="none" fill-rule="evenodd">
        <g id="Artboard" fill="#12284B">
            <g id="Group-4">
                <path d="M23.0636938,5.9470406 C20.8820576,3.78899288 17.8664772,2.4535088 14.5378691,2.4535088 C11.2068715,2.4535088 8.19129115,3.78899288 6.00965497,5.9470406 C3.82801879,8.10508832 2.47793726,11.0880634 2.47793726,14.3806816 C2.47793726,17.6756636 3.82801879,20.6586386 6.00965497,22.8166864 C8.19129115,24.9747341 11.2068715,26.3102182 14.5378691,26.3102182 C17.8664772,26.3102182 20.8820576,24.9747341 23.0636938,22.8166864 C25.2453299,20.6586386 26.597801,17.6756636 26.597801,14.3806816 C26.597801,11.0880634 25.2453299,8.10508832 23.0636938,5.9470406 M26.4209762,28.269716 L34.8846731,36.6419012 C35.3673572,37.1193663 36.1535108,37.1193663 36.6361948,36.6419012 C37.1212684,36.1644361 37.1212684,35.3867825 36.6361948,34.9069537 L28.1748874,26.5371323 C27.6922034,26.0573035 26.9036602,26.0573035 26.4209762,26.5371323 C25.9382921,27.0145974 25.9382921,27.7922509 26.4209762,28.269716 M14.5378691,0 C18.5498813,0 22.1867381,1.61203565 24.8152155,4.21445683 C27.4460823,6.81687801 29.0757383,10.4120484 29.0757383,14.3806816 C29.0757383,18.3540422 27.4460823,21.9492126 24.8152155,24.5516338 C22.1867381,27.1516913 18.5498813,28.763727 14.5378691,28.763727 C10.5234674,28.763727 6.88661059,27.1516913 4.25813326,24.5516338 C1.62726642,21.9492126 0,18.3540422 0,14.3806816 C0,10.4120484 1.62726642,6.81687801 4.25813326,4.21445683 C6.88661059,1.61203565 10.5234674,0 14.5378691,0" id="Fill-1"></path>
            </g>
        </g>
    </g>
</svg>