<?xml version="1.0" encoding="UTF-8"?>
<svg width="22px" height="27px" viewBox="0 0 22 27" version="1.1" xmlns="http://www.w3.org/2000/svg" xmlns:xlink="http://www.w3.org/1999/xlink">
    <title>Artboard</title>
    <g id="Artboard" stroke="none" stroke-width="1" fill="none" fill-rule="evenodd">
        <g id="Group" fill="#3BBEAD">
            <path d="M20.3781901,14.0586173 C20.3781901,20.0835933 12.6898415,24.02727 10.999218,24.8212471 C9.30859458,24.02727 1.62180991,20.0835933 1.62180991,14.0586173 L1.62180991,6.01555185 C5.81474373,5.61162562 8.29046705,5.3541612 10.999218,2.50046863 C13.7095329,5.3541612 16.1836923,5.61162562 20.3781901,6.01555185 L20.3781901,14.0586173 Z M21.2039525,4.49389083 L20.5908865,4.43530611 C16.4683301,4.03754669 14.1740243,3.81245803 11.6201038,0.78763641 C11.335466,0.448461713 10.8271842,0.403752321 10.4831165,0.682800594 C10.4440179,0.716718064 10.4080472,0.752177237 10.3752044,0.790719816 C7.82128386,3.81708314 5.5222862,4.03908839 1.38721831,4.43684781 L0.73036184,4.50005764 C0.31435274,4.54014192 0.00156394398,4.88856684 0.00156394398,5.29249307 L0,5.29249307 L0,14.0586173 C0,21.8688855 10.6426388,26.4199933 10.6739177,26.4323269 C10.8897419,26.5263708 11.1243335,26.5186623 11.3260823,26.4323269 C11.3557973,26.4199933 22,21.8688855 22,14.0586173 L22,5.29249307 C22,4.85619107 21.6449847,4.50159934 21.2039525,4.49389083 L21.2039525,4.49389083 Z" id="Fill-1"></path>
            <path d="M7.38287901,13.395619 C7.06576584,13.0878095 6.55338593,13.0878095 6.23783488,13.395619 C5.92072171,13.7049524 5.92072171,14.2047619 6.23783488,14.5125714 L9.06217293,17.2691429 C9.37772397,17.5769524 9.89010388,17.5769524 10.2072171,17.2691429 L15.7621651,11.8489524 C16.0792783,11.539619 16.0792783,11.0398095 15.7621651,10.732 C15.4466141,10.4226667 14.932672,10.4226667 14.617121,10.732 L9.63391393,15.5914286 L7.38287901,13.395619 Z" id="Fill-3"></path>
        </g>
    </g>
</svg>