<?xml version="1.0" encoding="UTF-8"?>
<svg width="1440px" height="61px" viewBox="0 0 1440 61" version="1.1" xmlns="http://www.w3.org/2000/svg" xmlns:xlink="http://www.w3.org/1999/xlink">
    <title>Artboard</title>
    <g id="Artboard" stroke="none" stroke-width="1" fill="none" fill-rule="evenodd">
        <path d="M1769.80408,13.4665766 C1844.80332,36.6744006 1910.73805,111.199186 1894.75241,188.168452 L1904,248.354171 C1874.6949,320.128563 1844.27714,393.663882 1791.21372,450.12459 C1777.80489,464.391549 1762.57826,477.38138 1746.10969,488.476229 L1746.1077,488.46426 C1731.10822,486.456674 1716.12239,484.718636 1701.17193,483.248864 C1358.53296,449.564216 1013.43566,522.352735 668.907295,520.948523 C497.0364,520.245797 325.780984,501.049732 156.554616,471.936596 C68.9215145,456.856236 -22.2195616,439.283404 -107.848632,465.168688 C-193.474661,491.051858 -270.132184,576.715661 -253.970754,666.414236 L-265.990691,736.236754 C-259.414988,753.799797 -252.785916,771.453341 -245.874741,788.99911 C-357.912672,766.474494 -462.421582,705.488706 -535.378651,617.183261 C-554.540029,593.988768 -572.160631,567.655125 -575.433257,537.726033 C-578.196456,512.486668 -570.439726,487.32205 -561.189706,463.685734 C-450.279215,180.381015 -128.404693,34.2104718 174.365978,9.02550766 C477.13665,-16.1594565 780.014949,50.258088 1083.82703,52.857731 C1235.38631,54.1526732 1386.76069,39.5350789 1536.53785,16.3655975 C1614.09935,4.36372701 1694.80219,-9.74309958 1769.80408,13.4665766 Z" id="Combined-Shape" fill="#0A1B38"></path>
    </g>
</svg>