<?xml version="1.0" encoding="UTF-8"?>
<svg width="1435px" height="88px" viewBox="0 0 1435 88" version="1.1" xmlns="http://www.w3.org/2000/svg" xmlns:xlink="http://www.w3.org/1999/xlink">
    <title>Artboard</title>
    <g id="Artboard" stroke="none" stroke-width="1" fill="none" fill-rule="evenodd">
        <path d="M1733.80408,-428.533423 C1808.80332,-405.325599 1874.73805,-330.800814 1858.75241,-253.831548 L1868,-193.645829 C1838.6949,-121.871437 1808.27714,-48.3361184 1755.21372,8.12458981 C1741.80489,22.3915492 1726.57826,35.38138 1710.10969,46.4762295 L1710.1077,46.4642604 C1695.10822,44.4566741 1680.12239,42.7186356 1665.17193,41.248864 C1322.53296,7.56421626 977.435661,80.3527346 632.907295,78.9485229 C461.0364,78.2457974 289.780984,59.0497316 120.554616,29.9365959 C32.9215145,14.8562358 -58.2195616,-2.71659591 -143.848632,23.1686881 C-229.474661,49.0518578 -306.132184,134.715661 -289.970754,224.414236 L-301.990691,294.236754 C-295.414988,311.799797 -288.785916,329.453341 -281.874741,346.99911 C-393.912672,324.474494 -498.421582,263.488706 -571.378651,175.183261 C-590.540029,151.988768 -608.160631,125.655125 -611.433257,95.7260335 C-614.196456,70.4866677 -606.439726,45.3220496 -597.189706,21.6857335 C-486.279215,-261.618985 -164.404693,-407.789528 138.365978,-432.974492 C441.13665,-458.159456 744.014949,-391.741912 1047.82703,-389.142269 C1199.38631,-387.847327 1350.76069,-402.464921 1500.53785,-425.634403 C1578.09935,-437.636273 1658.80219,-451.7431 1733.80408,-428.533423 Z" id="Combined-Shape" fill="#12284B"></path>
    </g>
</svg>