<?xml version="1.0" encoding="UTF-8"?>
<svg width="1440px" height="74px" viewBox="0 0 1440 74" version="1.1" xmlns="http://www.w3.org/2000/svg" xmlns:xlink="http://www.w3.org/1999/xlink">
    <title>Artboard</title>
    <g id="Artboard" stroke="none" stroke-width="1" fill="none" fill-rule="evenodd">
        <path d="M1791.80408,-436.533423 C1866.80332,-413.325599 1932.73805,-338.800814 1916.75241,-261.831548 L1926,-201.645829 C1896.6949,-129.871437 1866.27714,-56.3361184 1813.21372,0.124589807 C1799.80489,14.3915492 1784.57826,27.38138 1768.10969,38.4762295 L1768.1077,38.4642604 C1753.10822,36.4566741 1738.12239,34.7186356 1723.17193,33.248864 C1380.53296,-0.435783738 1035.43566,72.3527346 690.907295,70.9485229 C519.0364,70.2457974 347.780984,51.0497316 178.554616,21.9365959 C90.9215145,6.85623584 -0.219561598,-10.7165959 -85.8486315,15.1686881 C-171.474661,41.0518578 -248.132184,126.715661 -231.970754,216.414236 L-243.990691,286.236754 C-237.414988,303.799797 -230.785916,321.453341 -223.874741,338.99911 C-335.912672,316.474494 -440.421582,255.488706 -513.378651,167.183261 C-532.540029,143.988768 -550.160631,117.655125 -553.433257,87.7260335 C-556.196456,62.4866677 -548.439726,37.3220496 -539.189706,13.6857335 C-428.279215,-269.618985 -106.404693,-415.789528 196.365978,-440.974492 C499.13665,-466.159456 802.014949,-399.741912 1105.82703,-397.142269 C1257.38631,-395.847327 1408.76069,-410.464921 1558.53785,-433.634403 C1636.09935,-445.636273 1716.80219,-459.7431 1791.80408,-436.533423 Z" id="Combined-Shape" fill="#0A1B38"></path>
    </g>
</svg>