<?xml version="1.0" encoding="UTF-8"?>
<svg width="1698px" height="201px" viewBox="0 0 1698 201" version="1.1" xmlns="http://www.w3.org/2000/svg" xmlns:xlink="http://www.w3.org/1999/xlink">
    <title>Artboard</title>
    <g id="Artboard" stroke="none" stroke-width="1" fill="none" fill-rule="evenodd">
        <path d="M2013.80408,-132.541181 C2088.80332,-109.347798 2154.73805,-34.8693854 2138.75241,42.0519877 L2148,102.200256 C2118.6949,173.929986 2088.27714,247.419548 2035.21372,303.845124 C2021.80516,318.102918 2006.57887,331.084429 1990.11069,342.172227 L1990.1087,342.161072 C1975.10889,340.154678 1960.12273,338.417676 1945.17193,336.948787 C1602.53296,303.285099 1257.43566,376.028325 912.907295,374.624987 C741.0364,373.922699 569.780984,354.738578 400.554616,325.643558 C312.921514,310.572581 221.780438,293.010684 136.151368,318.879861 C50.5253392,344.746925 -26.1321841,430.357424 -9.97075358,520.000184 L-21.9906905,589.779256 C-15.4148773,607.331667 -8.78569177,624.974527 -1.87439032,642.50967 C-113.912051,619.998543 -218.421366,559.050603 -291.378651,470.799843 C-310.540029,447.619783 -328.160631,421.302526 -331.433257,391.392058 C-334.196456,366.168397 -326.439726,341.019438 -317.189706,317.397829 C-206.279215,34.2693961 115.595307,-111.810193 418.365978,-136.979486 C721.13665,-162.148779 1024.01495,-95.7725626 1327.82703,-93.1745373 C1479.38631,-91.8804008 1630.76069,-106.488899 1780.53785,-129.643964 C1858.09935,-141.638366 1938.80219,-155.736415 2013.80408,-132.541181 Z" id="Combined-Shape-Copy" fill="#F5DEDA" transform="translate(908.000000, 248.754835) scale(1, -1) translate(-908.000000, -248.754835) "></path>
    </g>
</svg>