<?xml version="1.0" encoding="UTF-8"?>
<svg width="2500px" height="154px" viewBox="0 0 2500 154" version="1.1" xmlns="http://www.w3.org/2000/svg" xmlns:xlink="http://www.w3.org/1999/xlink">
    <title>Combined Shape Copy</title>
    <g id="Version-2" stroke="none" stroke-width="1" fill="none" fill-rule="evenodd">
        <g id="Artboard" transform="translate(0.000000, -9.000000)" fill="#FFFFFF">
            <path d="M2575.80408,-282.535347 C2650.80332,-259.331105 2716.73805,-184.817821 2700.75241,-107.860432 L2710,-47.6840017 L2708.24019,-43.3762407 C2679.46913,27.0134435 2649.21587,98.732324 2597.21372,154.055279 C2592.09764,159.497929 2581.32467,164.754687 2565.96664,169.791241 L2565.93205,169.786117 C2124.87846,130.779967 1685.31477,186.405006 1243.15314,168.724737 C1008.7913,159.351072 774.344213,129.373609 542.167808,88.4322505 C421.936104,67.2262066 296.797085,43.063787 181.345307,67.6666767 C65.8975677,92.2673592 -34.3345058,184.018488 -7.81665664,284.91035 L-20.7144423,362.216425 C2.4708473,409.149851 26.0849561,456.658343 54.0739106,502 C-84.9435438,495.596383 -220.548457,428.589463 -309.378651,321.088169 C-328.540029,297.897255 -346.160631,271.567676 -349.433257,241.643204 C-352.196456,216.407733 -344.439726,191.246998 -335.189706,167.61433 C-224.279215,-115.646668 97.5953067,-261.794653 400.365978,-286.975731 C703.13665,-312.156808 1006.01495,-245.749514 1309.82703,-243.150272 C1461.38631,-241.85553 1612.76069,-256.470868 1762.53785,-279.636774 C1840.09935,-291.636792 2500.80219,-305.741442 2575.80408,-282.535347 Z" id="Combined-Shape-Copy" transform="translate(1180.000000, 103.500000) scale(1, -1) translate(-1180.000000, -103.500000) "></path>
        </g>
    </g>
</svg>